<?xml version="1.0" encoding="UTF-8" standalone="no"?><svg xmlns="http://www.w3.org/2000/svg" xmlns:xlink="http://www.w3.org/1999/xlink" clip-rule="evenodd" stroke-miterlimit="4.00" viewBox="0 0 1024 768"><desc>SVG generated by Keynote</desc><defs></defs><g transform="matrix(1.00, 0.00, -0.00, -1.00, 0.0, 768.0)"><path d="M 0.0 768.0 L 1024.0 768.0 L 1024.0 0.0 L 0.0 0.0 Z M 0.0 768.0 " fill="#FEFFFF"></path><text xml:space="preserve" font-family="Helvetica-Light" font-size="60.0" fill="#4E8EF7" transform="matrix(1.00, 0.00, -0.00, -1.00, 465.0, 620.0)">C</text><text xml:space="preserve" font-family="Helvetica-Light" font-size="60.0" fill="#4E8EF7" transform="matrix(1.00, 0.00, -0.00, -1.00, 508.3, 620.0)">L</text><text xml:space="preserve" font-family="Helvetica-Light" font-size="60.0" fill="#4E8EF7" transform="matrix(1.00, 0.00, -0.00, -1.00, 541.7, 620.0)">I</text><g><clipPath id="clip-11"><path d="M 417.0 516.0 L 607.0 516.0 L 607.0 334.0 L 417.0 334.0 Z M 417.1 515.5 "></path></clipPath><g clip-path="url(#clip-11)"><g><clipPath id="clip-12"><path d="M 417.1 333.5 L 606.9 333.5 L 606.9 515.5 L 417.1 515.5 Z M 417.1 333.5 "></path></clipPath><g clip-path="url(#clip-12)"><image xlink:href="../../2AB24FC0-CFBD-49C2-B206-2296CBFE91BC/assets/D74B913F5A8B4A92ADAAE4496C136C8F.png" width="382.00" height="132.00" transform="matrix(1.38, 0.00, -0.00, -1.37, 417.0, 515.0)"></image></g></g></g></g><g><clipPath id="clip-13"><path d="M 404.8 236.5 L 619.2 236.5 L 619.2 372.5 L 404.8 372.5 Z M 404.8 236.5 "></path></clipPath><g clip-path="url(#clip-13)"><text xml:space="preserve" font-family="Helvetica-Light" font-size="80.0" fill="#4E8EF7" transform="matrix(1.00, 0.00, -0.00, -1.00, 425.0, 275.0)">I</text><text xml:space="preserve" font-family="Helvetica-Light" font-size="80.0" fill="#4E8EF7" transform="matrix(1.00, 0.00, -0.00, -1.00, 447.2, 275.0)">o</text><text xml:space="preserve" font-family="Helvetica-Light" font-size="80.0" fill="#4E8EF7" transform="matrix(1.00, 0.00, -0.00, -1.00, 491.7, 275.0)">n</text><text xml:space="preserve" font-family="Helvetica-Light" font-size="80.0" fill="#4E8EF7" transform="matrix(1.00, 0.00, -0.00, -1.00, 536.2, 275.0)">i</text><text xml:space="preserve" font-family="Helvetica-Light" font-size="80.0" fill="#4E8EF7" transform="matrix(1.00, 0.00, -0.00, -1.00, 554.0, 275.0)">c</text></g></g><path d="M 0.0 0.0 L 82.6 0.0 L 83.6 0.0 " fill="none" stroke="#4E8EF7" stroke-width="2.00" transform="matrix(0.00, 1.00, 1.00, 0.00, 512.0, 517.3)"></path><path d="M 516.8 600.0 L 512.0 609.6 L 507.2 600.0 Z M 516.8 600.0 " fill="#4E8EF7"></path></g></svg>