<?xml version="1.0" encoding="UTF-8" standalone="no"?><svg xmlns="http://www.w3.org/2000/svg" xmlns:xlink="http://www.w3.org/1999/xlink" clip-rule="evenodd" stroke-miterlimit="4.00" viewBox="0 0 1024 768"><desc>SVG generated by Keynote</desc><defs></defs><g transform="matrix(1.00, 0.00, -0.00, -1.00, 0.0, 768.0)"><path d="M 0.0 768.0 L 1024.0 768.0 L 1024.0 0.0 L 0.0 0.0 Z M 0.0 768.0 " fill="#FEFFFF"></path><text xml:space="preserve" font-family="Helvetica-Light" font-size="60.0" fill="#4E8EF7" transform="matrix(1.00, 0.00, -0.00, -1.00, 465.0, 620.0)">C</text><text xml:space="preserve" font-family="Helvetica-Light" font-size="60.0" fill="#4E8EF7" transform="matrix(1.00, 0.00, -0.00, -1.00, 508.3, 620.0)">L</text><text xml:space="preserve" font-family="Helvetica-Light" font-size="60.0" fill="#4E8EF7" transform="matrix(1.00, 0.00, -0.00, -1.00, 541.7, 620.0)">I</text><image xlink:href="../../40D113E4-D9D9-46D4-A57C-D8DE892B4810/assets/6C5882E965A74B73FBFCED2AF186803D.png" width="169.00" height="92.00" transform="matrix(0.99, 0.00, -0.00, -1.00, 704.0, 624.0)"></image><g><clipPath id="clip-38"><path d="M 417.0 516.0 L 607.0 516.0 L 607.0 334.0 L 417.0 334.0 Z M 417.1 515.5 "></path></clipPath><g clip-path="url(#clip-38)"><g><clipPath id="clip-39"><path d="M 417.1 333.5 L 606.9 333.5 L 606.9 515.5 L 417.1 515.5 Z M 417.1 333.5 "></path></clipPath><g clip-path="url(#clip-39)"><image xlink:href="../../2AB24FC0-CFBD-49C2-B206-2296CBFE91BC/assets/D74B913F5A8B4A92ADAAE4496C136C8F.png" width="382.00" height="132.00" transform="matrix(1.38, 0.00, -0.00, -1.37, 417.0, 515.0)"></image></g></g></g></g><g><clipPath id="clip-40"><path d="M 404.8 236.5 L 619.2 236.5 L 619.2 372.5 L 404.8 372.5 Z M 404.8 236.5 "></path></clipPath><g clip-path="url(#clip-40)"><text xml:space="preserve" font-family="Helvetica-Light" font-size="80.0" fill="#4E8EF7" transform="matrix(1.00, 0.00, -0.00, -1.00, 425.0, 275.0)">I</text><text xml:space="preserve" font-family="Helvetica-Light" font-size="80.0" fill="#4E8EF7" transform="matrix(1.00, 0.00, -0.00, -1.00, 447.2, 275.0)">o</text><text xml:space="preserve" font-family="Helvetica-Light" font-size="80.0" fill="#4E8EF7" transform="matrix(1.00, 0.00, -0.00, -1.00, 491.7, 275.0)">n</text><text xml:space="preserve" font-family="Helvetica-Light" font-size="80.0" fill="#4E8EF7" transform="matrix(1.00, 0.00, -0.00, -1.00, 536.2, 275.0)">i</text><text xml:space="preserve" font-family="Helvetica-Light" font-size="80.0" fill="#4E8EF7" transform="matrix(1.00, 0.00, -0.00, -1.00, 554.0, 275.0)">c</text></g></g><path d="M 0.0 0.0 L 82.6 0.0 L 83.6 0.0 " fill="none" stroke="#4E8EF7" stroke-width="2.00" transform="matrix(0.00, 1.00, 1.00, 0.00, 512.0, 517.3)"></path><path d="M 516.8 600.0 L 512.0 609.6 L 507.2 600.0 Z M 516.8 600.0 " fill="#4E8EF7"></path><path d="M 0.0 0.0 L 126.4 0.0 L 127.4 0.0 " fill="none" stroke="#4E8EF7" stroke-width="2.00" transform="matrix(0.90, 0.44, 0.44, -0.90, 584.7, 495.3)"></path><path d="M 700.1 547.2 L 706.6 555.7 L 695.8 555.8 Z M 700.1 547.2 " fill="#4E8EF7"></path><g><clipPath id="clip-41"><path d="M 24.2 66.5 L 999.8 66.5 L 999.8 701.5 L 24.2 701.5 Z M 24.2 66.5 "></path></clipPath><g clip-path="url(#clip-41)"><g opacity="0.80"><g><clipPath id="clip-42"><path d="M 25.0 67.0 L 999.0 67.0 L 999.0 701.0 L 25.0 701.0 Z M 25.0 67.0 "></path></clipPath><g clip-path="url(#clip-42)"><path d="M 26.2 699.5 L 997.8 699.5 L 997.8 68.5 L 26.2 68.5 Z M 26.2 699.5 " fill="#FEFFFF"></path><path d="M 0.0 0.0 L 971.6 0.0 L 971.6 631.0 L 0.0 631.0 Z M 0.0 0.0 " fill="none" stroke="#85878C" stroke-width="2.00" transform="matrix(1.00, 0.00, 0.00, -1.00, 26.2, 699.5)"></path></g></g></g></g></g><g><clipPath id="clip-43"><path d="M 23.7 76.9 L 1000.3 76.9 L 1000.3 691.1 L 23.7 691.1 Z M 23.7 76.9 "></path></clipPath><g clip-path="url(#clip-43)"><text xml:space="preserve" font-family="Helvetica-Bold" font-weight="bold" font-size="36.0" fill="#000000" transform="matrix(1.00, 0.00, -0.00, -1.00, 257.0, 370.0)">G</text><text xml:space="preserve" font-family="Helvetica-Bold" font-weight="bold" font-size="36.0" fill="#000000" transform="matrix(1.00, 0.00, -0.00, -1.00, 285.0, 370.0)">U</text><text xml:space="preserve" font-family="Helvetica-Bold" font-weight="bold" font-size="36.0" fill="#000000" transform="matrix(1.00, 0.00, -0.00, -1.00, 311.0, 370.0)">I</text><text xml:space="preserve" font-family="Helvetica-Bold" font-weight="bold" font-size="36.0" fill="#000000" transform="matrix(1.00, 0.00, -0.00, -1.00, 321.0, 370.0)"> </text><text xml:space="preserve" font-family="Helvetica-Bold" font-weight="bold" font-size="36.0" fill="#000000" transform="matrix(1.00, 0.00, -0.00, -1.00, 331.0, 370.0)">и</text><text xml:space="preserve" font-family="Helvetica-Bold" font-weight="bold" font-size="36.0" fill="#000000" transform="matrix(1.00, 0.00, -0.00, -1.00, 353.0, 370.0)">н</text><text xml:space="preserve" font-family="Helvetica-Bold" font-weight="bold" font-size="36.0" fill="#000000" transform="matrix(1.00, 0.00, -0.00, -1.00, 375.0, 370.0)">т</text><text xml:space="preserve" font-family="Helvetica-Bold" font-weight="bold" font-size="36.0" fill="#000000" transform="matrix(1.00, 0.00, -0.00, -1.00, 393.0, 370.0)">е</text><text xml:space="preserve" font-family="Helvetica-Bold" font-weight="bold" font-size="36.0" fill="#000000" transform="matrix(1.00, 0.00, -0.00, -1.00, 413.0, 370.0)">р</text><text xml:space="preserve" font-family="Helvetica-Bold" font-weight="bold" font-size="36.0" fill="#000000" transform="matrix(1.00, 0.00, -0.00, -1.00, 435.0, 370.0)">ф</text><text xml:space="preserve" font-family="Helvetica-Bold" font-weight="bold" font-size="36.0" fill="#000000" transform="matrix(1.00, 0.00, -0.00, -1.00, 464.9, 370.0)">е</text><text xml:space="preserve" font-family="Helvetica-Bold" font-weight="bold" font-size="36.0" fill="#000000" transform="matrix(1.00, 0.00, -0.00, -1.00, 484.9, 370.0)">й</text><text xml:space="preserve" font-family="Helvetica-Bold" font-weight="bold" font-size="36.0" fill="#000000" transform="matrix(1.00, 0.00, -0.00, -1.00, 506.9, 370.0)">с</text><text xml:space="preserve" font-family="Helvetica-Bold" font-weight="bold" font-size="36.0" fill="#000000" transform="matrix(1.00, 0.00, -0.00, -1.00, 527.0, 370.0)"> </text><text xml:space="preserve" font-family="Helvetica-Bold" font-weight="bold" font-size="36.0" fill="#000000" transform="matrix(1.00, 0.00, -0.00, -1.00, 537.0, 370.0)">д</text><text xml:space="preserve" font-family="Helvetica-Bold" font-weight="bold" font-size="36.0" fill="#000000" transform="matrix(1.00, 0.00, -0.00, -1.00, 560.0, 370.0)">л</text><text xml:space="preserve" font-family="Helvetica-Bold" font-weight="bold" font-size="36.0" fill="#000000" transform="matrix(1.00, 0.00, -0.00, -1.00, 583.5, 370.0)">я</text><text xml:space="preserve" font-family="Helvetica-Bold" font-weight="bold" font-size="36.0" fill="#000000" transform="matrix(1.00, 0.00, -0.00, -1.00, 605.5, 370.0)"> </text><text xml:space="preserve" font-family="Helvetica-Bold" font-weight="bold" font-size="36.0" fill="#000000" transform="matrix(1.00, 0.00, -0.00, -1.00, 615.5, 370.0)">I</text><text xml:space="preserve" font-family="Helvetica-Bold" font-weight="bold" font-size="36.0" fill="#000000" transform="matrix(1.00, 0.00, -0.00, -1.00, 625.5, 370.0)">o</text><text xml:space="preserve" font-family="Helvetica-Bold" font-weight="bold" font-size="36.0" fill="#000000" transform="matrix(1.00, 0.00, -0.00, -1.00, 647.4, 370.0)">n</text><text xml:space="preserve" font-family="Helvetica-Bold" font-weight="bold" font-size="36.0" fill="#000000" transform="matrix(1.00, 0.00, -0.00, -1.00, 669.4, 370.0)">i</text><text xml:space="preserve" font-family="Helvetica-Bold" font-weight="bold" font-size="36.0" fill="#000000" transform="matrix(1.00, 0.00, -0.00, -1.00, 679.4, 370.0)">c</text><text xml:space="preserve" font-family="Helvetica-Bold" font-weight="bold" font-size="36.0" fill="#000000" transform="matrix(1.00, 0.00, -0.00, -1.00, 699.4, 370.0)"> </text><text xml:space="preserve" font-family="Helvetica-Bold" font-weight="bold" font-size="36.0" fill="#000000" transform="matrix(1.00, 0.00, -0.00, -1.00, 709.4, 370.0)">C</text><text xml:space="preserve" font-family="Helvetica-Bold" font-weight="bold" font-size="36.0" fill="#000000" transform="matrix(1.00, 0.00, -0.00, -1.00, 735.4, 370.0)">L</text><text xml:space="preserve" font-family="Helvetica-Bold" font-weight="bold" font-size="36.0" fill="#000000" transform="matrix(1.00, 0.00, -0.00, -1.00, 757.4, 370.0)">I</text></g></g></g></svg>