<?xml version="1.0" encoding="UTF-8" standalone="no"?><svg xmlns="http://www.w3.org/2000/svg" xmlns:xlink="http://www.w3.org/1999/xlink" clip-rule="evenodd" stroke-miterlimit="4.00" viewBox="0 0 1024 768"><desc>SVG generated by Keynote</desc><defs></defs><g transform="matrix(1.00, 0.00, -0.00, -1.00, 0.0, 768.0)"><path d="M 0.0 768.0 L 1024.0 768.0 L 1024.0 0.0 L 0.0 0.0 Z M 0.0 768.0 " fill="#FEFFFF"></path><image xlink:href="../../0E9BE732-0CD2-48D0-8079-53743BF15335/assets/B596F8C96F296F2938FF5023B814B2D9.png" width="225.00" height="225.00" transform="matrix(1.00, 0.00, -0.00, -1.00, 400.0, 496.0)"></image><image xlink:href="../../AEA5958C-D9CD-4DAD-8D1C-964A10D16853/assets/36FAF0BE29B127F356CA31EA683503F1.png" width="415.00" height="415.00" transform="matrix(1.00, 0.00, -0.00, -1.00, 640.0, 581.0)"></image><image xlink:href="../../2AB24FC0-CFBD-49C2-B206-2296CBFE91BC/assets/08632CE2F728A1635803186C64226477.png" width="224.00" height="253.00" transform="matrix(1.00, 0.00, -0.00, -1.00, 65.0, 500.0)"></image><text xml:space="preserve" font-family="Helvetica-Bold" font-weight="bold" font-size="36.0" fill="#000000" transform="matrix(1.00, 0.00, -0.00, -1.00, 104.0, 206.0)">C</text><text xml:space="preserve" font-family="Helvetica-Bold" font-weight="bold" font-size="36.0" fill="#000000" transform="matrix(1.00, 0.00, -0.00, -1.00, 130.0, 206.0)">o</text><text xml:space="preserve" font-family="Helvetica-Bold" font-weight="bold" font-size="36.0" fill="#000000" transform="matrix(1.00, 0.00, -0.00, -1.00, 152.0, 206.0)">r</text><text xml:space="preserve" font-family="Helvetica-Bold" font-weight="bold" font-size="36.0" fill="#000000" transform="matrix(1.00, 0.00, -0.00, -1.00, 166.0, 206.0)">d</text><text xml:space="preserve" font-family="Helvetica-Bold" font-weight="bold" font-size="36.0" fill="#000000" transform="matrix(1.00, 0.00, -0.00, -1.00, 188.0, 206.0)">o</text><text xml:space="preserve" font-family="Helvetica-Bold" font-weight="bold" font-size="36.0" fill="#000000" transform="matrix(1.00, 0.00, -0.00, -1.00, 210.0, 206.0)">v</text><text xml:space="preserve" font-family="Helvetica-Bold" font-weight="bold" font-size="36.0" fill="#000000" transform="matrix(1.00, 0.00, -0.00, -1.00, 230.0, 206.0)">a</text><text xml:space="preserve" font-family="Helvetica-Bold" font-weight="bold" font-size="36.0" fill="#000000" transform="matrix(1.00, 0.00, -0.00, -1.00, 452.0, 206.0)">H</text><text xml:space="preserve" font-family="Helvetica-Bold" font-weight="bold" font-size="36.0" fill="#000000" transform="matrix(1.00, 0.00, -0.00, -1.00, 478.0, 206.0)">T</text><text xml:space="preserve" font-family="Helvetica-Bold" font-weight="bold" font-size="36.0" fill="#000000" transform="matrix(1.00, 0.00, -0.00, -1.00, 500.0, 206.0)">M</text><text xml:space="preserve" font-family="Helvetica-Bold" font-weight="bold" font-size="36.0" fill="#000000" transform="matrix(1.00, 0.00, -0.00, -1.00, 530.0, 206.0)">L</text><text xml:space="preserve" font-family="Helvetica-Bold" font-weight="bold" font-size="36.0" fill="#000000" transform="matrix(1.00, 0.00, -0.00, -1.00, 552.0, 206.0)">5</text><text xml:space="preserve" font-family="Helvetica-Bold" font-weight="bold" font-size="36.0" fill="#000000" transform="matrix(1.00, 0.00, -0.00, -1.00, 760.0, 206.0)">A</text><text xml:space="preserve" font-family="Helvetica-Bold" font-weight="bold" font-size="36.0" fill="#000000" transform="matrix(1.00, 0.00, -0.00, -1.00, 786.0, 206.0)">n</text><text xml:space="preserve" font-family="Helvetica-Bold" font-weight="bold" font-size="36.0" fill="#000000" transform="matrix(1.00, 0.00, -0.00, -1.00, 808.0, 206.0)">g</text><text xml:space="preserve" font-family="Helvetica-Bold" font-weight="bold" font-size="36.0" fill="#000000" transform="matrix(1.00, 0.00, -0.00, -1.00, 830.0, 206.0)">u</text><text xml:space="preserve" font-family="Helvetica-Bold" font-weight="bold" font-size="36.0" fill="#000000" transform="matrix(1.00, 0.00, -0.00, -1.00, 852.0, 206.0)">l</text><text xml:space="preserve" font-family="Helvetica-Bold" font-weight="bold" font-size="36.0" fill="#000000" transform="matrix(1.00, 0.00, -0.00, -1.00, 862.0, 206.0)">a</text><text xml:space="preserve" font-family="Helvetica-Bold" font-weight="bold" font-size="36.0" fill="#000000" transform="matrix(1.00, 0.00, -0.00, -1.00, 882.0, 206.0)">r</text><text xml:space="preserve" font-family="Helvetica-Bold" font-weight="bold" font-size="36.0" fill="#000000" transform="matrix(1.00, 0.00, -0.00, -1.00, 894.1, 206.0)">.</text><text xml:space="preserve" font-family="Helvetica-Bold" font-weight="bold" font-size="36.0" fill="#000000" transform="matrix(1.00, 0.00, -0.00, -1.00, 904.1, 206.0)">j</text><text xml:space="preserve" font-family="Helvetica-Bold" font-weight="bold" font-size="36.0" fill="#000000" transform="matrix(1.00, 0.00, -0.00, -1.00, 914.1, 206.0)">s</text><image xlink:href="../../2AB24FC0-CFBD-49C2-B206-2296CBFE91BC/assets/D74B913F5A8B4A92ADAAE4496C136C8F.png" width="382.00" height="132.00" transform="matrix(1.00, 0.00, -0.00, -1.00, 321.0, 728.0)"></image><g opacity="0.89"><g><clipPath id="clip-0"><path d="M 65.0 340.0 L 959.0 340.0 L 959.0 427.0 L 65.0 427.0 Z M 65.0 340.0 "></path></clipPath><g clip-path="url(#clip-0)"><path d="M 67.4 425.0 L 956.6 425.0 L 956.6 343.0 L 67.4 343.0 Z M 67.4 425.0 " fill="#52575F"></path><path d="M 0.0 0.0 L 889.3 0.0 L 889.3 82.0 L 0.0 82.0 Z M 0.0 0.0 " fill="none" stroke="#85878C" stroke-width="2.00" transform="matrix(1.00, 0.00, 0.00, -1.00, 67.4, 425.0)"></path><text xml:space="preserve" font-family="Helvetica-Light" font-size="60.0" fill="#FEFFFE" transform="matrix(1.00, 0.00, -0.00, -1.00, 141.0, 362.0)">n</text><text xml:space="preserve" font-family="Helvetica-Light" font-size="60.0" fill="#FEFFFE" transform="matrix(1.00, 0.00, -0.00, -1.00, 174.4, 362.0)">p</text><text xml:space="preserve" font-family="Helvetica-Light" font-size="60.0" fill="#FEFFFE" transform="matrix(1.00, 0.00, -0.00, -1.00, 211.0, 362.0)">m</text><text xml:space="preserve" font-family="Helvetica-Light" font-size="60.0" fill="#FEFFFE" transform="matrix(1.00, 0.00, -0.00, -1.00, 261.0, 362.0)"> </text><text xml:space="preserve" font-family="Helvetica-Light" font-size="60.0" fill="#FEFFFE" transform="matrix(1.00, 0.00, -0.00, -1.00, 277.7, 362.0)">i</text><text xml:space="preserve" font-family="Helvetica-Light" font-size="60.0" fill="#FEFFFE" transform="matrix(1.00, 0.00, -0.00, -1.00, 291.0, 362.0)">n</text><text xml:space="preserve" font-family="Helvetica-Light" font-size="60.0" fill="#FEFFFE" transform="matrix(1.00, 0.00, -0.00, -1.00, 324.4, 362.0)">s</text><text xml:space="preserve" font-family="Helvetica-Light" font-size="60.0" fill="#FEFFFE" transform="matrix(1.00, 0.00, -0.00, -1.00, 354.4, 362.0)">t</text><text xml:space="preserve" font-family="Helvetica-Light" font-size="60.0" fill="#FEFFFE" transform="matrix(1.00, 0.00, -0.00, -1.00, 371.0, 362.0)">a</text><text xml:space="preserve" font-family="Helvetica-Light" font-size="60.0" fill="#FEFFFE" transform="matrix(1.00, 0.00, -0.00, -1.00, 404.4, 362.0)">l</text><text xml:space="preserve" font-family="Helvetica-Light" font-size="60.0" fill="#FEFFFE" transform="matrix(1.00, 0.00, -0.00, -1.00, 417.7, 362.0)">l</text><text xml:space="preserve" font-family="Helvetica-Light" font-size="60.0" fill="#FEFFFE" transform="matrix(1.00, 0.00, -0.00, -1.00, 431.0, 362.0)"> </text><text xml:space="preserve" font-family="Helvetica-Light" font-size="60.0" fill="#FEFFFE" transform="matrix(1.00, 0.00, -0.00, -1.00, 447.7, 362.0)">-</text><text xml:space="preserve" font-family="Helvetica-Light" font-size="60.0" fill="#FEFFFE" transform="matrix(1.00, 0.00, -0.00, -1.00, 467.7, 362.0)">g</text><text xml:space="preserve" font-family="Helvetica-Light" font-size="60.0" fill="#FEFFFE" transform="matrix(1.00, 0.00, -0.00, -1.00, 504.4, 362.0)"> </text><text xml:space="preserve" font-family="Helvetica-Light" font-size="60.0" fill="#FEFFFE" transform="matrix(1.00, 0.00, -0.00, -1.00, 521.0, 362.0)">c</text><text xml:space="preserve" font-family="Helvetica-Light" font-size="60.0" fill="#FEFFFE" transform="matrix(1.00, 0.00, -0.00, -1.00, 554.4, 362.0)">o</text><text xml:space="preserve" font-family="Helvetica-Light" font-size="60.0" fill="#FEFFFE" transform="matrix(1.00, 0.00, -0.00, -1.00, 587.8, 362.0)">r</text><text xml:space="preserve" font-family="Helvetica-Light" font-size="60.0" fill="#FEFFFE" transform="matrix(1.00, 0.00, -0.00, -1.00, 606.7, 362.0)">d</text><text xml:space="preserve" font-family="Helvetica-Light" font-size="60.0" fill="#FEFFFE" transform="matrix(1.00, 0.00, -0.00, -1.00, 643.3, 362.0)">o</text><text xml:space="preserve" font-family="Helvetica-Light" font-size="60.0" fill="#FEFFFE" transform="matrix(1.00, 0.00, -0.00, -1.00, 676.7, 362.0)">v</text><text xml:space="preserve" font-family="Helvetica-Light" font-size="60.0" fill="#FEFFFE" transform="matrix(1.00, 0.00, -0.00, -1.00, 706.7, 362.0)">a</text><text xml:space="preserve" font-family="Helvetica-Light" font-size="60.0" fill="#FEFFFE" transform="matrix(1.00, 0.00, -0.00, -1.00, 740.0, 362.0)"> </text><text xml:space="preserve" font-family="Helvetica-Light" font-size="60.0" fill="#FEFFFE" transform="matrix(1.00, 0.00, -0.00, -1.00, 756.7, 362.0)">i</text><text xml:space="preserve" font-family="Helvetica-Light" font-size="60.0" fill="#FEFFFE" transform="matrix(1.00, 0.00, -0.00, -1.00, 770.0, 362.0)">o</text><text xml:space="preserve" font-family="Helvetica-Light" font-size="60.0" fill="#FEFFFE" transform="matrix(1.00, 0.00, -0.00, -1.00, 803.4, 362.0)">n</text><text xml:space="preserve" font-family="Helvetica-Light" font-size="60.0" fill="#FEFFFE" transform="matrix(1.00, 0.00, -0.00, -1.00, 836.8, 362.0)">i</text><text xml:space="preserve" font-family="Helvetica-Light" font-size="60.0" fill="#FEFFFE" transform="matrix(1.00, 0.00, -0.00, -1.00, 850.1, 362.0)">c</text><text xml:space="preserve" font-family="Helvetica-Light" font-size="60.0" fill="#FEFFFE" transform="matrix(1.00, 0.00, -0.00, -1.00, 883.4, 362.0)"> </text></g></g></g></g></svg>